<?xml version="1.0" standalone="no"?>
<!DOCTYPE svg PUBLIC "-//W3C//DTD SVG 20010904//EN"
 "http://www.w3.org/TR/2001/REC-SVG-20010904/DTD/svg10.dtd">
<svg version="1.0" xmlns="http://www.w3.org/2000/svg"
 width="300.000000pt" height="225.000000pt" viewBox="0 0 300.000000 225.000000"
 preserveAspectRatio="xMidYMid meet">
<metadata>
Created by potrace 1.10, written by Peter Selinger 2001-2011
</metadata>
<g transform="translate(0.000000,225.000000) scale(0.100000,-0.100000)"
fill="#000000" stroke="none">
<path d="M1030 1340 l0 -310 470 0 470 0 -2 308 -3 307 -467 3 -468 2 0 -310z
m910 -2 l0 -288 -445 0 -445 0 0 288 0 287 445 0 445 0 0 -287z"/>
<path d="M1665 1498 c-31 -17 -45 -39 -45 -74 0 -77 99 -106 144 -42 30 42 17
91 -31 116 -27 15 -42 15 -68 0z m70 -33 c29 -28 31 -42 9 -73 -28 -41 -104
-18 -104 32 0 26 9 39 35 54 28 16 33 15 60 -13z"/>
<path d="M1252 1314 c-153 -102 -192 -134 -164 -134 5 0 84 51 176 114 l167
114 124 -94 c68 -52 128 -94 133 -94 5 0 36 20 68 45 l58 45 43 -42 c23 -23
45 -39 48 -36 10 9 -6 32 -49 70 l-42 37 -57 -44 c-31 -25 -61 -45 -67 -45 -6
0 -65 41 -131 90 -66 50 -123 90 -127 90 -4 0 -85 -52 -180 -116z"/>
<path d="M891 730 c-1 -82 1 -90 18 -90 17 0 19 6 14 60 -3 33 -3 60 0 60 3 0
25 -27 48 -60 59 -85 69 -80 69 30 0 76 -2 90 -16 90 -14 0 -16 -10 -12 -60 2
-33 1 -60 -2 -60 -3 0 -25 27 -48 60 -60 84 -70 80 -71 -30z"/>
<path d="M1096 789 c-55 -65 -18 -154 64 -154 34 0 47 6 66 28 26 31 31 75 12
110 -17 34 -39 46 -80 47 -28 0 -42 -7 -62 -31z m108 -21 c9 -12 16 -33 16
-45 0 -28 -33 -63 -60 -63 -27 0 -60 35 -60 63 0 36 27 67 60 67 18 0 34 -8
44 -22z"/>
<path d="M1360 730 c0 -73 3 -90 15 -90 12 0 15 17 15 90 0 73 -3 90 -15 90
-12 0 -15 -17 -15 -90z"/>
<path d="M1430 730 c0 -72 3 -90 15 -90 10 0 15 15 17 58 l3 57 26 -44 27 -45
23 45 24 44 3 -57 c2 -43 7 -58 17 -58 12 0 15 18 15 90 0 105 -10 114 -53 45
-16 -25 -30 -45 -32 -45 -3 0 -16 20 -31 45 -41 71 -54 61 -54 -45z"/>
<path d="M1658 730 c-31 -79 -33 -90 -18 -90 10 0 20 9 23 20 7 28 83 29 92 1
6 -19 35 -38 35 -23 0 4 -14 46 -32 94 -22 59 -38 88 -49 88 -10 0 -27 -30
-51 -90z m66 18 c9 -35 8 -38 -18 -38 -23 0 -24 2 -15 30 13 36 24 38 33 8z"/>
<path d="M1835 798 c-39 -35 -44 -86 -11 -125 30 -36 71 -48 109 -34 24 9 27
16 27 56 0 45 0 45 -35 45 -24 0 -35 -5 -35 -15 0 -9 9 -15 21 -15 29 0 22
-44 -8 -48 -35 -5 -77 42 -68 76 9 41 33 54 83 47 45 -7 57 6 23 25 -32 17
-78 11 -106 -12z"/>
<path d="M2000 730 l0 -90 55 0 c42 0 55 3 55 15 0 11 -11 15 -40 15 -36 0
-40 3 -40 24 0 23 3 24 35 19 28 -4 35 -2 35 11 0 12 -9 16 -35 16 -31 0 -35
3 -35 25 0 23 4 25 40 25 29 0 40 4 40 15 0 12 -13 15 -55 15 l-55 0 0 -90z"/>
</g>
</svg>
